<?xml version="1.0" encoding="UTF-8" standalone="no"?>
<svg
   viewBox="0 0 100 100"
   version="1.1"
   id="svg3"
   sodipodi:docname="app_icon.svg"
   inkscape:version="1.4.3 (0d15f75, 2025-12-25)"
   xmlns:inkscape="http://www.inkscape.org/namespaces/inkscape"
   xmlns:sodipodi="http://sodipodi.sourceforge.net/DTD/sodipodi-0.dtd"
   xmlns="http://www.w3.org/2000/svg"
   xmlns:svg="http://www.w3.org/2000/svg">
  <defs
     id="defs3" />
  <sodipodi:namedview
     id="namedview3"
     pagecolor="#ffffff"
     bordercolor="#000000"
     borderopacity="0.25"
     inkscape:showpageshadow="2"
     inkscape:pageopacity="0.0"
     inkscape:pagecheckerboard="0"
     inkscape:deskcolor="#d1d1d1"
     inkscape:zoom="18.043376"
     inkscape:cx="44.642422"
     inkscape:cy="57.777437"
     inkscape:window-width="3008"
     inkscape:window-height="1634"
     inkscape:window-x="0"
     inkscape:window-y="30"
     inkscape:window-maximized="1"
     inkscape:current-layer="svg3" />
  <rect
     width="100"
     height="100"
     rx="16.7"
     fill="#2dd4bf"
     id="rect1" />
  <path
     fill="#ffffff"
     d="M 72.498798,38 63.002404,33.889156 C 57.669071,27.889156 52.666667,25.666667 46,27 37.952591,28.388755 32.675481,36.545405 31,39 27.110844,44.165465 26.049813,45.894765 21,53 l -6,-5 -2,9 6.38555,5.390358 C 22.720486,65 26.372785,68.585769 33.870781,68.80906 c 8.498798,0.228098 15.741265,-0.918301 23.741265,-5.584968 7.273103,-4.167869 9.664263,-14.71087 7.395166,-19.824118 L 64,41 Z"
     id="path1"
     sodipodi:nodetypes="ccccccccccccc" />
  <circle
     fill="#2dd4bf"
     id="circle1"
     r="2.5"
     cy="33.992786"
     cx="56.503605" />
  <path
     d="M 75 32 Q 83 38 75 45"
     fill="none"
     stroke="white"
     stroke-width="2.5"
     stroke-linecap="round"
     id="path2" />
  <path
     d="M 80 26 Q 93 38 80 51"
     fill="none"
     stroke="white"
     stroke-width="2.0"
     stroke-linecap="round"
     id="path3" />
</svg>
